<svg width="36" height="36" viewBox="0 0 36 36" fill="none" xmlns="http://www.w3.org/2000/svg">
<path d="M14.8217 8.66667L20.8217 2.66667C20.8217 2.66667 26.8217 -3.33333 32.8217 2.66667C38.8217 8.66667 32.8217 14.6667 32.8217 14.6667L24.8217 22.6667C24.8217 22.6667 18.8217 28.6667 12.8217 22.6667C11.6967 21.5417 10.9997 20.0467 10.9997 20.0467L14.3527 16.6987C14.3527 16.6987 14.2177 18.0627 15.8217 19.6667C15.8217 19.6667 18.8217 22.6667 21.8217 19.6667L29.8217 11.6667C29.8217 11.6667 32.8217 8.66667 29.8217 5.66667C26.8217 2.66667 23.8217 5.66667 23.8217 5.66667L20.0927 9.39567C20.0927 9.39567 18.2387 7.87467 14.4467 9.04167L14.8217 8.66667Z" fill="#8899A6"/>
<path d="M20.6667 26.6667L14.6667 32.6667C14.6667 32.6667 8.66667 38.6667 2.66667 32.6667C-3.33333 26.6667 2.66667 20.6667 2.66667 20.6667L10.6667 12.6667C10.6667 12.6667 16.6667 6.66667 22.6667 12.6667C23.7917 13.7917 24.4887 15.2867 24.4887 15.2867L21.1347 18.6357C21.1347 18.6357 21.2697 17.2707 19.6657 15.6667C19.6657 15.6667 16.6657 12.6667 13.6657 15.6667L5.66567 23.6667C5.66567 23.6667 2.66567 26.6667 5.66567 29.6667C8.66567 32.6667 11.6657 29.6667 11.6657 29.6667L15.3947 25.9377C15.3947 25.9377 17.2487 27.4587 21.0407 26.2917L20.6667 26.6667Z" fill="#8899A6"/>
</svg>
