<svg width="34" height="35" viewBox="0 0 34 35" fill="none" xmlns="http://www.w3.org/2000/svg">
<path d="M34 30.0963C34 30.0963 34 34.0963 30 34.0963H4C0 34.0963 0 30.0963 0 30.0963V11.0963C0 7.09625 4 7.09625 4 7.09625H30C30 7.09625 34 7.09625 34 11.0963V30.0963Z" fill="#31373D"/>
<path d="M20.303 9.48525C20.694 9.87625 20.694 10.5083 20.303 10.8993C19.912 11.2903 19.28 11.2903 18.889 10.8993L9.697 1.70725C9.306 1.31625 9.306 0.68425 9.697 0.29325C10.088 -0.09775 10.72 -0.09775 11.111 0.29325L20.303 9.48525V9.48525Z" fill="#31373D"/>
<path d="M13.697 9.48525C13.306 9.87625 13.306 10.5083 13.697 10.8993C14.088 11.2903 14.72 11.2903 15.111 10.8993L24.303 1.70725C24.694 1.31625 24.694 0.68425 24.303 0.29325C23.912 -0.09775 23.28 -0.09775 22.889 0.29325L13.697 9.48525Z" fill="#31373D"/>
<path d="M17 10.0963C25 10.0963 27 11.0963 28 12.0963C29 13.0963 30 15.0963 30 20.0963C30 25.0963 29 27.0963 28 28.0963C27 29.0963 25 30.0963 17 30.0963C9 30.0963 7 29.0963 6 28.0963C5 27.0963 4 25.0963 4 20.0963C4 15.0963 5 13.0963 6 12.0963C7 11.0963 9 10.0963 17 10.0963Z" fill="#55ACEE"/>
<path d="M30.5 32.0963C31.3284 32.0963 32 31.4247 32 30.5963C32 29.7678 31.3284 29.0963 30.5 29.0963C29.6716 29.0963 29 29.7678 29 30.5963C29 31.4247 29.6716 32.0963 30.5 32.0963Z" fill="#66757F"/>
<path d="M3.5 32.0963C4.32843 32.0963 5 31.4247 5 30.5963C5 29.7678 4.32843 29.0963 3.5 29.0963C2.67157 29.0963 2 29.7678 2 30.5963C2 31.4247 2.67157 32.0963 3.5 32.0963Z" fill="#66757F"/>
</svg>
